<svg width="577" height="993" viewBox="0 0 577 993" fill="none" xmlns="http://www.w3.org/2000/svg">
<circle cx="81" cy="180" r="50" fill="#4AE26B"/>
<rect x="114" y="177" width="102" height="7" fill="#4AE26B"/>
<circle cx="81" cy="409" r="50" fill="#F2736B"/>
<rect x="114" y="406" width="102" height="7" fill="#F2736B"/>
<circle cx="80" cy="578" r="50" fill="#4AE26B"/>
<rect x="114" y="575" width="102" height="7" fill="#4AE26B"/>
<circle cx="82" cy="798" r="50" fill="#F2736B"/>
<rect x="114" y="795" width="102" height="7" fill="#F2736B"/>
<circle cx="331" cy="323" r="50" transform="rotate(-180 331 323)" fill="#5590E9"/>
<rect x="298" y="326" width="102" height="7" transform="rotate(-180 298 326)" fill="#5590E9"/>
<circle cx="330" cy="499" r="50" transform="rotate(-180 330 499)" fill="#D5D90D"/>
<rect x="298" y="502" width="102" height="7" transform="rotate(-180 298 502)" fill="#D5D90D"/>
<circle cx="333" cy="716" r="50" transform="rotate(-180 333 716)" fill="#5590E9"/>
<rect x="300" y="719" width="102" height="7" transform="rotate(-180 300 719)" fill="#5590E9"/>
<circle cx="333" cy="898" r="50" transform="rotate(-180 333 898)" fill="#4AE26B"/>
<rect x="300" y="901" width="102" height="7" transform="rotate(-180 300 901)" fill="#4AE26B"/>
<rect x="196" y="148" width="20" height="178.237" rx="10" fill="#4AE26B"/>
<rect x="196" y="276.119" width="20" height="178.237" rx="10" fill="#5590E9"/>
<rect x="196" y="365.237" width="20" height="178.237" rx="10" fill="#F2736B"/>
<rect x="196" y="454.356" width="20" height="178.237" rx="10" fill="#D5D90D"/>
<rect x="196" y="543.474" width="20" height="178.237" rx="10" fill="#4AE26B"/>
<rect x="196" y="672" width="20" height="178.237" rx="10" fill="#5590E9"/>
<rect x="196" y="761.119" width="20" height="178.237" rx="10" fill="#F2736B"/>
<rect x="196" y="850.237" width="20" height="119.17" rx="10" fill="#4AE26B"/>
<rect x="171" y="930.228" width="20" height="50" rx="10" transform="rotate(-37.6897 171 930.228)" fill="#4AE26B"/>
<rect x="225.074" y="918" width="20" height="50" rx="10" transform="rotate(37.69 225.074 918)" fill="#4AE26B"/>
<rect x="171" y="637.228" width="20" height="50" rx="10" transform="rotate(-37.6897 171 637.228)" fill="#4AE26B"/>
<rect x="225.074" y="625" width="20" height="50" rx="10" transform="rotate(37.69 225.074 625)" fill="#4AE26B"/>
<path d="M26.72 249H23.84L22.84 245.58H18.62L17.64 249H14.86L19.06 235H22.48L26.72 249ZM22.3 243.28L20.76 237.52L19.2 243.28H22.3ZM38.522 241.5C38.522 243.753 37.8687 245.567 36.562 246.94C35.2554 248.313 33.5087 249 31.322 249H27.602V235H31.942C33.9287 235 35.522 235.607 36.722 236.82C37.922 238.033 38.522 239.593 38.522 241.5ZM35.502 241.34C35.502 240.087 35.162 239.1 34.482 238.38C33.802 237.66 32.982 237.3 32.022 237.3H30.422V246.7H31.502C32.622 246.7 33.5687 246.227 34.342 245.28C35.1154 244.32 35.502 243.007 35.502 241.34ZM51.0713 241.5C51.0713 243.753 50.4179 245.567 49.1113 246.94C47.8046 248.313 46.0579 249 43.8713 249H40.1513V235H44.4913C46.4779 235 48.0713 235.607 49.2713 236.82C50.4713 238.033 51.0713 239.593 51.0713 241.5ZM48.0513 241.34C48.0513 240.087 47.7113 239.1 47.0313 238.38C46.3513 237.66 45.5313 237.3 44.5713 237.3H42.9713V246.7H44.0513C45.1713 246.7 46.1179 246.227 46.8913 245.28C47.6646 244.32 48.0513 243.007 48.0513 241.34ZM55.8405 242.92H55.6005V248.98H52.7005V234.98H57.1405C58.6471 234.98 59.7738 235.313 60.5205 235.98C61.2671 236.633 61.6405 237.573 61.6405 238.8C61.6405 239.547 61.3805 240.233 60.8605 240.86C60.3405 241.473 59.7071 241.827 58.9605 241.92C59.4938 242.067 59.9071 242.313 60.2005 242.66C60.4938 242.993 60.8005 243.54 61.1205 244.3L63.1005 248.98H60.1205L58.1805 244.5C57.9005 243.86 57.6005 243.44 57.2805 243.24C56.9738 243.027 56.4938 242.92 55.8405 242.92ZM57.0605 237.26H55.6005V240.64H56.8605C57.3938 240.64 57.8071 240.467 58.1005 240.12C58.4071 239.773 58.5605 239.347 58.5605 238.84C58.5605 237.787 58.0605 237.26 57.0605 237.26ZM69.3913 249.1C67.4313 249.1 65.9513 248.427 64.9513 247.08C63.9513 245.72 63.4513 243.993 63.4513 241.9C63.4513 239.807 63.9513 238.1 64.9513 236.78C65.9646 235.46 67.4446 234.8 69.3913 234.8C71.3513 234.8 72.8379 235.46 73.8513 236.78C74.8646 238.1 75.3713 239.807 75.3713 241.9C75.3713 244.767 74.4979 246.833 72.7513 248.1C71.8313 248.767 70.7113 249.1 69.3913 249.1ZM69.4313 237.1C68.7246 237.1 68.1313 237.347 67.6513 237.84C66.7979 238.693 66.3713 240.047 66.3713 241.9C66.3713 243.3 66.6313 244.467 67.1513 245.4C67.6713 246.32 68.4313 246.78 69.4313 246.78C70.4446 246.78 71.2046 246.313 71.7113 245.38C72.2179 244.433 72.4713 243.287 72.4713 241.94C72.4713 240.58 72.1979 239.433 71.6513 238.5C71.1179 237.567 70.3779 237.1 69.4313 237.1ZM86.02 247.8C85.1267 248.68 83.8333 249.12 82.14 249.12C80.4467 249.12 79.1533 248.68 78.26 247.8C77.3667 246.907 76.92 245.587 76.92 243.84V235H79.84V244.08C79.84 244.96 80.0333 245.64 80.42 246.12C80.82 246.587 81.3867 246.82 82.12 246.82C82.8533 246.82 83.42 246.587 83.82 246.12C84.2333 245.64 84.44 244.96 84.44 244.08V235H87.36V243.84C87.36 245.587 86.9133 246.907 86.02 247.8ZM100.541 249.02H97.5012L92.7612 240.4V249H89.8012V235H92.7612L97.6412 244.04V235H100.541V249.02ZM113.895 241.5C113.895 243.753 113.242 245.567 111.935 246.94C110.629 248.313 108.882 249 106.695 249H102.975V235H107.315C109.302 235 110.895 235.607 112.095 236.82C113.295 238.033 113.895 239.593 113.895 241.5ZM110.875 241.34C110.875 240.087 110.535 239.1 109.855 238.38C109.175 237.66 108.355 237.3 107.395 237.3H105.795V246.7H106.875C107.995 246.7 108.942 246.227 109.715 245.28C110.489 244.32 110.875 243.007 110.875 241.34ZM125.605 249H122.325L119.225 242.54L118.425 243.44V249H115.525V235H118.405V240.12L122.245 235H125.685L121.245 240.32L125.605 249ZM134.93 249H126.59V235H134.93V237.3H129.49V240.24H134.43V242.58H129.49V246.7H134.93V249ZM146.789 235L142.489 243.1V249H139.589V243.1L135.469 235H138.529L141.069 240.48L143.769 235H146.789Z" fill="black"/>
<path d="M278.72 967H275.84L274.84 963.58H270.62L269.64 967H266.86L271.06 953H274.48L278.72 967ZM274.3 961.28L272.76 955.52L271.2 961.28H274.3ZM290.522 959.5C290.522 961.753 289.869 963.567 288.562 964.94C287.255 966.313 285.509 967 283.322 967H279.602V953H283.942C285.929 953 287.522 953.607 288.722 954.82C289.922 956.033 290.522 957.593 290.522 959.5ZM287.502 959.34C287.502 958.087 287.162 957.1 286.482 956.38C285.802 955.66 284.982 955.3 284.022 955.3H282.422V964.7H283.502C284.622 964.7 285.569 964.227 286.342 963.28C287.115 962.32 287.502 961.007 287.502 959.34ZM303.071 959.5C303.071 961.753 302.418 963.567 301.111 964.94C299.805 966.313 298.058 967 295.871 967H292.151V953H296.491C298.478 953 300.071 953.607 301.271 954.82C302.471 956.033 303.071 957.593 303.071 959.5ZM300.051 959.34C300.051 958.087 299.711 957.1 299.031 956.38C298.351 955.66 297.531 955.3 296.571 955.3H294.971V964.7H296.051C297.171 964.7 298.118 964.227 298.891 963.28C299.665 962.32 300.051 961.007 300.051 959.34ZM307.84 960.92H307.6V966.98H304.7V952.98H309.14C310.647 952.98 311.774 953.313 312.52 953.98C313.267 954.633 313.64 955.573 313.64 956.8C313.64 957.547 313.38 958.233 312.86 958.86C312.34 959.473 311.707 959.827 310.96 959.92C311.494 960.067 311.907 960.313 312.2 960.66C312.494 960.993 312.8 961.54 313.12 962.3L315.1 966.98H312.12L310.18 962.5C309.9 961.86 309.6 961.44 309.28 961.24C308.974 961.027 308.494 960.92 307.84 960.92ZM309.06 955.26H307.6V958.64H308.86C309.394 958.64 309.807 958.467 310.1 958.12C310.407 957.773 310.56 957.347 310.56 956.84C310.56 955.787 310.06 955.26 309.06 955.26ZM321.391 967.1C319.431 967.1 317.951 966.427 316.951 965.08C315.951 963.72 315.451 961.993 315.451 959.9C315.451 957.807 315.951 956.1 316.951 954.78C317.965 953.46 319.445 952.8 321.391 952.8C323.351 952.8 324.838 953.46 325.851 954.78C326.865 956.1 327.371 957.807 327.371 959.9C327.371 962.767 326.498 964.833 324.751 966.1C323.831 966.767 322.711 967.1 321.391 967.1ZM321.431 955.1C320.725 955.1 320.131 955.347 319.651 955.84C318.798 956.693 318.371 958.047 318.371 959.9C318.371 961.3 318.631 962.467 319.151 963.4C319.671 964.32 320.431 964.78 321.431 964.78C322.445 964.78 323.205 964.313 323.711 963.38C324.218 962.433 324.471 961.287 324.471 959.94C324.471 958.58 324.198 957.433 323.651 956.5C323.118 955.567 322.378 955.1 321.431 955.1ZM338.02 965.8C337.127 966.68 335.833 967.12 334.14 967.12C332.447 967.12 331.153 966.68 330.26 965.8C329.367 964.907 328.92 963.587 328.92 961.84V953H331.84V962.08C331.84 962.96 332.033 963.64 332.42 964.12C332.82 964.587 333.387 964.82 334.12 964.82C334.853 964.82 335.42 964.587 335.82 964.12C336.233 963.64 336.44 962.96 336.44 962.08V953H339.36V961.84C339.36 963.587 338.913 964.907 338.02 965.8ZM352.541 967.02H349.501L344.761 958.4V967H341.801V953H344.761L349.641 962.04V953H352.541V967.02ZM365.895 959.5C365.895 961.753 365.242 963.567 363.935 964.94C362.629 966.313 360.882 967 358.695 967H354.975V953H359.315C361.302 953 362.895 953.607 364.095 954.82C365.295 956.033 365.895 957.593 365.895 959.5ZM362.875 959.34C362.875 958.087 362.535 957.1 361.855 956.38C361.175 955.66 360.355 955.3 359.395 955.3H357.795V964.7H358.875C359.995 964.7 360.942 964.227 361.715 963.28C362.489 962.32 362.875 961.007 362.875 959.34ZM377.605 967H374.325L371.225 960.54L370.425 961.44V967H367.525V953H370.405V958.12L374.245 953H377.685L373.245 958.32L377.605 967ZM386.93 967H378.59V953H386.93V955.3H381.49V958.24H386.43V960.58H381.49V964.7H386.93V967ZM398.789 953L394.489 961.1V967H391.589V961.1L387.469 953H390.529L393.069 958.48L395.769 953H398.789Z" fill="black"/>
<path d="M279.64 392V390H283.24V380.58L280.3 382.5L279.36 380.58L283.24 378H285.74V390H288.5V392H279.64ZM294.151 387.32H289.531V385.02H294.151V387.32ZM303.573 378.5L303.093 380.84L301.853 380.5C300.973 380.3 300.207 380.2 299.553 380.2C298.647 380.2 298.193 380.633 298.193 381.5C298.193 381.833 298.347 382.14 298.653 382.42C298.973 382.687 299.373 382.913 299.853 383.1C300.333 383.273 300.847 383.493 301.393 383.76C301.94 384.027 302.453 384.313 302.933 384.62C303.413 384.927 303.807 385.347 304.113 385.88C304.433 386.413 304.593 387.027 304.593 387.72C304.593 389.093 304.147 390.173 303.253 390.96C302.373 391.733 301.127 392.12 299.513 392.12C298.687 392.12 297.86 392.013 297.033 391.8C296.22 391.573 295.547 391.313 295.013 391.02L295.873 388.88C297.1 389.44 298.313 389.72 299.513 389.72C300.193 389.72 300.727 389.567 301.113 389.26C301.5 388.94 301.693 388.533 301.693 388.04C301.693 387.547 301.473 387.14 301.033 386.82C300.593 386.487 300.06 386.193 299.433 385.94C298.807 385.673 298.18 385.38 297.553 385.06C296.927 384.727 296.393 384.267 295.953 383.68C295.513 383.08 295.293 382.373 295.293 381.56C295.293 380.347 295.673 379.42 296.433 378.78C297.193 378.127 298.213 377.8 299.493 377.8C300.787 377.8 302.147 378.033 303.573 378.5ZM315.449 390.8C314.556 391.68 313.262 392.12 311.569 392.12C309.876 392.12 308.582 391.68 307.689 390.8C306.796 389.907 306.349 388.587 306.349 386.84V378H309.269V387.08C309.269 387.96 309.462 388.64 309.849 389.12C310.249 389.587 310.816 389.82 311.549 389.82C312.282 389.82 312.849 389.587 313.249 389.12C313.662 388.64 313.869 387.96 313.869 387.08V378H316.789V386.84C316.789 388.587 316.342 389.907 315.449 390.8ZM319.23 392V378H323.63C325.19 378 326.357 378.313 327.13 378.94C327.903 379.553 328.29 380.433 328.29 381.58C328.29 382.353 328.07 382.993 327.63 383.5C327.203 384.007 326.617 384.313 325.87 384.42C326.817 384.58 327.55 384.96 328.07 385.56C328.59 386.16 328.85 386.907 328.85 387.8C328.85 389.067 328.377 390.087 327.43 390.86C326.483 391.62 325.17 392 323.49 392H319.23ZM321.99 389.7H323.97C324.61 389.7 325.123 389.533 325.51 389.2C325.897 388.853 326.09 388.393 326.09 387.82C326.09 387.233 325.87 386.727 325.43 386.3C325.003 385.86 324.377 385.64 323.55 385.64H321.99V389.7ZM323.73 380.3H321.99V383.36H323.53C324.05 383.36 324.51 383.2 324.91 382.88C325.323 382.56 325.53 382.147 325.53 381.64C325.53 380.813 324.93 380.367 323.73 380.3ZM330.568 392V378H334.968C336.528 378 337.695 378.313 338.468 378.94C339.242 379.553 339.628 380.433 339.628 381.58C339.628 382.353 339.408 382.993 338.968 383.5C338.542 384.007 337.955 384.313 337.208 384.42C338.155 384.58 338.888 384.96 339.408 385.56C339.928 386.16 340.188 386.907 340.188 387.8C340.188 389.067 339.715 390.087 338.768 390.86C337.822 391.62 336.508 392 334.828 392H330.568ZM333.328 389.7H335.308C335.948 389.7 336.462 389.533 336.848 389.2C337.235 388.853 337.428 388.393 337.428 387.82C337.428 387.233 337.208 386.727 336.768 386.3C336.342 385.86 335.715 385.64 334.888 385.64H333.328V389.7ZM335.068 380.3H333.328V383.36H334.868C335.388 383.36 335.848 383.2 336.248 382.88C336.662 382.56 336.868 382.147 336.868 381.64C336.868 380.813 336.268 380.367 335.068 380.3ZM351.667 378L347.367 386.1V392H344.467V386.1L340.347 378H343.407L345.947 383.48L348.647 378H351.667ZM354.742 392V380.34H351.522V378H360.802V380.34H357.622V392H354.742ZM370.56 392H362.22V378H370.56V380.3H365.12V383.24H370.06V385.58H365.12V389.7H370.56V392ZM380.5 378.5L380.02 380.84L378.78 380.5C377.9 380.3 377.133 380.2 376.48 380.2C375.573 380.2 375.12 380.633 375.12 381.5C375.12 381.833 375.273 382.14 375.58 382.42C375.9 382.687 376.3 382.913 376.78 383.1C377.26 383.273 377.773 383.493 378.32 383.76C378.867 384.027 379.38 384.313 379.86 384.62C380.34 384.927 380.733 385.347 381.04 385.88C381.36 386.413 381.52 387.027 381.52 387.72C381.52 389.093 381.073 390.173 380.18 390.96C379.3 391.733 378.053 392.12 376.44 392.12C375.613 392.12 374.787 392.013 373.96 391.8C373.147 391.573 372.473 391.313 371.94 391.02L372.8 388.88C374.027 389.44 375.24 389.72 376.44 389.72C377.12 389.72 377.653 389.567 378.04 389.26C378.427 388.94 378.62 388.533 378.62 388.04C378.62 387.547 378.4 387.14 377.96 386.82C377.52 386.487 376.987 386.193 376.36 385.94C375.733 385.673 375.107 385.38 374.48 385.06C373.853 384.727 373.32 384.267 372.88 383.68C372.44 383.08 372.22 382.373 372.22 381.56C372.22 380.347 372.6 379.42 373.36 378.78C374.12 378.127 375.14 377.8 376.42 377.8C377.713 377.8 379.073 378.033 380.5 378.5Z" fill="black"/>
<path d="M34.6 475.8L34.58 478H25.94V475.96C28.0733 473.84 29.6267 472.133 30.6 470.84C31.5733 469.547 32.06 468.42 32.06 467.46C32.06 466.487 31.3533 466 29.94 466C28.9267 466 27.96 466.133 27.04 466.4L26.58 466.52L26.2 464.46C27.2667 464.02 28.5333 463.8 30 463.8C31.4667 463.8 32.5933 464.107 33.38 464.72C34.18 465.32 34.58 466.173 34.58 467.28C34.58 468.387 34.1533 469.607 33.3 470.94C32.46 472.273 31.1667 473.893 29.42 475.8H34.6ZM40.2683 473.32H35.6483V471.02H40.2683V473.32ZM49.6905 464.5L49.2105 466.84L47.9705 466.5C47.0905 466.3 46.3238 466.2 45.6705 466.2C44.7638 466.2 44.3105 466.633 44.3105 467.5C44.3105 467.833 44.4638 468.14 44.7705 468.42C45.0905 468.687 45.4905 468.913 45.9705 469.1C46.4505 469.273 46.9638 469.493 47.5105 469.76C48.0571 470.027 48.5705 470.313 49.0505 470.62C49.5305 470.927 49.9238 471.347 50.2305 471.88C50.5505 472.413 50.7105 473.027 50.7105 473.72C50.7105 475.093 50.2638 476.173 49.3705 476.96C48.4905 477.733 47.2438 478.12 45.6305 478.12C44.8038 478.12 43.9771 478.013 43.1505 477.8C42.3371 477.573 41.6638 477.313 41.1305 477.02L41.9905 474.88C43.2171 475.44 44.4305 475.72 45.6305 475.72C46.3105 475.72 46.8438 475.567 47.2305 475.26C47.6171 474.94 47.8105 474.533 47.8105 474.04C47.8105 473.547 47.5905 473.14 47.1505 472.82C46.7105 472.487 46.1771 472.193 45.5505 471.94C44.9238 471.673 44.2971 471.38 43.6705 471.06C43.0438 470.727 42.5105 470.267 42.0705 469.68C41.6305 469.08 41.4105 468.373 41.4105 467.56C41.4105 466.347 41.7905 465.42 42.5505 464.78C43.3105 464.127 44.3305 463.8 45.6105 463.8C46.9038 463.8 48.2638 464.033 49.6905 464.5ZM62.9061 478H60.0061V471.88H55.3661V478H52.4661V464H55.3661V469.58H60.0061V464H62.9061V478ZM67.9473 478H65.0473V464H67.9473V478ZM78.4441 464V466.3H72.9841V469.24H77.9641V471.58H72.9841V478H70.0841V464H78.4441ZM82.0794 478V466.34H78.8594V464H88.1394V466.34H84.9594V478H82.0794ZM92.6975 471.92H92.4575V477.98H89.5575V463.98H93.9975C95.5042 463.98 96.6308 464.313 97.3775 464.98C98.1242 465.633 98.4975 466.573 98.4975 467.8C98.4975 468.547 98.2375 469.233 97.7175 469.86C97.1975 470.473 96.5642 470.827 95.8175 470.92C96.3508 471.067 96.7642 471.313 97.0575 471.66C97.3508 471.993 97.6575 472.54 97.9775 473.3L99.9575 477.98H96.9775L95.0375 473.5C94.7575 472.86 94.4575 472.44 94.1375 472.24C93.8308 472.027 93.3508 471.92 92.6975 471.92ZM93.9175 466.26H92.4575V469.64H93.7175C94.2508 469.64 94.6642 469.467 94.9575 469.12C95.2642 468.773 95.4175 468.347 95.4175 467.84C95.4175 466.787 94.9175 466.26 93.9175 466.26ZM106.248 478.1C104.288 478.1 102.808 477.427 101.808 476.08C100.808 474.72 100.308 472.993 100.308 470.9C100.308 468.807 100.808 467.1 101.808 465.78C102.822 464.46 104.302 463.8 106.248 463.8C108.208 463.8 109.695 464.46 110.708 465.78C111.722 467.1 112.228 468.807 112.228 470.9C112.228 473.767 111.355 475.833 109.608 477.1C108.688 477.767 107.568 478.1 106.248 478.1ZM106.288 466.1C105.582 466.1 104.988 466.347 104.508 466.84C103.655 467.693 103.228 469.047 103.228 470.9C103.228 472.3 103.488 473.467 104.008 474.4C104.528 475.32 105.288 475.78 106.288 475.78C107.302 475.78 108.062 475.313 108.568 474.38C109.075 473.433 109.328 472.287 109.328 470.94C109.328 469.58 109.055 468.433 108.508 467.5C107.975 466.567 107.235 466.1 106.288 466.1ZM127.517 464L124.197 478H121.257L120.017 471.88L118.317 478H115.477L112.217 464H115.337L116.977 474.3L118.637 467.8H121.357L122.817 474.3L124.537 464H127.517ZM136.237 464.5L135.757 466.84L134.517 466.5C133.637 466.3 132.87 466.2 132.217 466.2C131.31 466.2 130.857 466.633 130.857 467.5C130.857 467.833 131.01 468.14 131.317 468.42C131.637 468.687 132.037 468.913 132.517 469.1C132.997 469.273 133.51 469.493 134.057 469.76C134.603 470.027 135.117 470.313 135.597 470.62C136.077 470.927 136.47 471.347 136.777 471.88C137.097 472.413 137.257 473.027 137.257 473.72C137.257 475.093 136.81 476.173 135.917 476.96C135.037 477.733 133.79 478.12 132.177 478.12C131.35 478.12 130.523 478.013 129.697 477.8C128.883 477.573 128.21 477.313 127.677 477.02L128.537 474.88C129.763 475.44 130.977 475.72 132.177 475.72C132.857 475.72 133.39 475.567 133.777 475.26C134.163 474.94 134.357 474.533 134.357 474.04C134.357 473.547 134.137 473.14 133.697 472.82C133.257 472.487 132.723 472.193 132.097 471.94C131.47 471.673 130.843 471.38 130.217 471.06C129.59 470.727 129.057 470.267 128.617 469.68C128.177 469.08 127.957 468.373 127.957 467.56C127.957 466.347 128.337 465.42 129.097 464.78C129.857 464.127 130.877 463.8 132.157 463.8C133.45 463.8 134.81 464.033 136.237 464.5Z" fill="black"/>
<path d="M267.52 559.78H269.62C270.3 559.78 270.833 559.587 271.22 559.2C271.62 558.8 271.82 558.307 271.82 557.72C271.82 556.573 271.16 556 269.84 556C269.387 556 268.893 556.067 268.36 556.2C267.827 556.333 267.4 556.467 267.08 556.6L266.62 556.82L266.14 554.76C266.58 554.507 267.147 554.287 267.84 554.1C268.547 553.9 269.193 553.8 269.78 553.8C271.273 553.8 272.387 554.14 273.12 554.82C273.853 555.487 274.22 556.4 274.22 557.56C274.22 558.373 274.027 559.087 273.64 559.7C273.253 560.3 272.753 560.673 272.14 560.82C272.873 560.94 273.48 561.273 273.96 561.82C274.44 562.353 274.68 563.033 274.68 563.86C274.68 565.193 274.233 566.24 273.34 567C272.46 567.747 271.22 568.12 269.62 568.12C268.94 568.12 268.28 568.04 267.64 567.88C267 567.72 266.533 567.56 266.24 567.4L265.78 567.18L266.58 565.16C267.647 565.667 268.647 565.92 269.58 565.92C270.527 565.92 271.207 565.753 271.62 565.42C272.047 565.087 272.26 564.62 272.26 564.02C272.26 563.42 272.027 562.933 271.56 562.56C271.107 562.173 270.46 561.98 269.62 561.98H267.52V559.78ZM280.346 563.32H275.726V561.02H280.346V563.32ZM294.529 568H291.629V559.32L289.129 564.72H286.609L284.109 559.34V568H281.229V554H284.309L287.889 561.5L291.629 554H294.529V568ZM298.875 568H295.975V554H298.875V568ZM311.271 568H308.031L305.471 563.1L302.811 568H299.591L304.031 560.64L300.011 554H303.311L305.531 558.12L307.851 554H311.051L306.971 560.64L311.271 568ZM317.791 568.12C315.751 568.12 314.184 567.48 313.091 566.2C312.011 564.907 311.471 563.16 311.471 560.96C311.471 558.76 312.044 557.02 313.191 555.74C314.351 554.46 315.958 553.82 318.011 553.82C319.131 553.82 320.244 554.013 321.351 554.4L320.791 556.64C319.978 556.293 319.018 556.12 317.911 556.12C316.804 556.12 315.938 556.54 315.311 557.38C314.684 558.22 314.371 559.38 314.371 560.86C314.371 562.34 314.664 563.54 315.251 564.46C315.838 565.367 316.664 565.82 317.731 565.82C318.531 565.82 319.671 565.56 321.151 565.04L321.751 567.08C320.538 567.773 319.218 568.12 317.791 568.12ZM328.611 568.1C326.651 568.1 325.171 567.427 324.171 566.08C323.171 564.72 322.671 562.993 322.671 560.9C322.671 558.807 323.171 557.1 324.171 555.78C325.184 554.46 326.664 553.8 328.611 553.8C330.571 553.8 332.057 554.46 333.071 555.78C334.084 557.1 334.591 558.807 334.591 560.9C334.591 563.767 333.717 565.833 331.971 567.1C331.051 567.767 329.931 568.1 328.611 568.1ZM328.651 556.1C327.944 556.1 327.351 556.347 326.871 556.84C326.017 557.693 325.591 559.047 325.591 560.9C325.591 562.3 325.851 563.467 326.371 564.4C326.891 565.32 327.651 565.78 328.651 565.78C329.664 565.78 330.424 565.313 330.931 564.38C331.437 563.433 331.691 562.287 331.691 560.94C331.691 559.58 331.417 558.433 330.871 557.5C330.337 556.567 329.597 556.1 328.651 556.1ZM344.44 568H336.14V554H339.04V565.7H344.44V568ZM354.293 566.8C353.399 567.68 352.106 568.12 350.413 568.12C348.719 568.12 347.426 567.68 346.533 566.8C345.639 565.907 345.193 564.587 345.193 562.84V554H348.113V563.08C348.113 563.96 348.306 564.64 348.693 565.12C349.093 565.587 349.659 565.82 350.393 565.82C351.126 565.82 351.693 565.587 352.093 565.12C352.506 564.64 352.713 563.96 352.713 563.08V554H355.633V562.84C355.633 564.587 355.186 565.907 354.293 566.8ZM370.674 568H367.774V559.32L365.274 564.72H362.754L360.254 559.34V568H357.374V554H360.454L364.034 561.5L367.774 554H370.674V568ZM383.16 568.02H380.12L375.38 559.4V568H372.42V554H375.38L380.26 563.04V554H383.16V568.02ZM393.434 554.5L392.954 556.84L391.714 556.5C390.834 556.3 390.068 556.2 389.414 556.2C388.508 556.2 388.054 556.633 388.054 557.5C388.054 557.833 388.208 558.14 388.514 558.42C388.834 558.687 389.234 558.913 389.714 559.1C390.194 559.273 390.708 559.493 391.254 559.76C391.801 560.027 392.314 560.313 392.794 560.62C393.274 560.927 393.668 561.347 393.974 561.88C394.294 562.413 394.454 563.027 394.454 563.72C394.454 565.093 394.008 566.173 393.114 566.96C392.234 567.733 390.988 568.12 389.374 568.12C388.548 568.12 387.721 568.013 386.894 567.8C386.081 567.573 385.408 567.313 384.874 567.02L385.734 564.88C386.961 565.44 388.174 565.72 389.374 565.72C390.054 565.72 390.588 565.567 390.974 565.26C391.361 564.94 391.554 564.533 391.554 564.04C391.554 563.547 391.334 563.14 390.894 562.82C390.454 562.487 389.921 562.193 389.294 561.94C388.668 561.673 388.041 561.38 387.414 561.06C386.788 560.727 386.254 560.267 385.814 559.68C385.374 559.08 385.154 558.373 385.154 557.56C385.154 556.347 385.534 555.42 386.294 554.78C387.054 554.127 388.074 553.8 389.354 553.8C390.648 553.8 392.008 554.033 393.434 554.5Z" fill="black"/>
<path d="M8.52 638.78H10.62C11.3 638.78 11.8333 638.587 12.22 638.2C12.62 637.8 12.82 637.307 12.82 636.72C12.82 635.573 12.16 635 10.84 635C10.3867 635 9.89333 635.067 9.36 635.2C8.82667 635.333 8.4 635.467 8.08 635.6L7.62 635.82L7.14 633.76C7.58 633.507 8.14667 633.287 8.84 633.1C9.54667 632.9 10.1933 632.8 10.78 632.8C12.2733 632.8 13.3867 633.14 14.12 633.82C14.8533 634.487 15.22 635.4 15.22 636.56C15.22 637.373 15.0267 638.087 14.64 638.7C14.2533 639.3 13.7533 639.673 13.14 639.82C13.8733 639.94 14.48 640.273 14.96 640.82C15.44 641.353 15.68 642.033 15.68 642.86C15.68 644.193 15.2333 645.24 14.34 646C13.46 646.747 12.22 647.12 10.62 647.12C9.94 647.12 9.28 647.04 8.64 646.88C8 646.72 7.53333 646.56 7.24 646.4L6.78 646.18L7.58 644.16C8.64667 644.667 9.64667 644.92 10.58 644.92C11.5267 644.92 12.2067 644.753 12.62 644.42C13.0467 644.087 13.26 643.62 13.26 643.02C13.26 642.42 13.0267 641.933 12.56 641.56C12.1067 641.173 11.46 640.98 10.62 640.98H8.52V638.78ZM21.3464 642.32H16.7264V640.02H21.3464V642.32ZM33.2286 647H30.3486L29.3486 643.58H25.1286L24.1486 647H21.3686L25.5686 633H28.9886L33.2286 647ZM28.8086 641.28L27.2686 635.52L25.7086 641.28H28.8086ZM45.0306 639.5C45.0306 641.753 44.3773 643.567 43.0706 644.94C41.764 646.313 40.0173 647 37.8306 647H34.1106V633H38.4506C40.4373 633 42.0306 633.607 43.2306 634.82C44.4306 636.033 45.0306 637.593 45.0306 639.5ZM42.0106 639.34C42.0106 638.087 41.6706 637.1 40.9906 636.38C40.3106 635.66 39.4906 635.3 38.5306 635.3H36.9306V644.7H38.0106C39.1306 644.7 40.0773 644.227 40.8506 643.28C41.624 642.32 42.0106 641.007 42.0106 639.34ZM57.5798 639.5C57.5798 641.753 56.9265 643.567 55.6198 644.94C54.3132 646.313 52.5665 647 50.3798 647H46.6598V633H50.9998C52.9865 633 54.5798 633.607 55.7798 634.82C56.9798 636.033 57.5798 637.593 57.5798 639.5ZM54.5598 639.34C54.5598 638.087 54.2198 637.1 53.5398 636.38C52.8598 635.66 52.0398 635.3 51.0798 635.3H49.4798V644.7H50.5598C51.6798 644.7 52.6265 644.227 53.3998 643.28C54.1732 642.32 54.5598 641.007 54.5598 639.34ZM62.3491 640.92H62.1091V646.98H59.2091V632.98H63.6491C65.1557 632.98 66.2824 633.313 67.0291 633.98C67.7757 634.633 68.1491 635.573 68.1491 636.8C68.1491 637.547 67.8891 638.233 67.3691 638.86C66.8491 639.473 66.2157 639.827 65.4691 639.92C66.0024 640.067 66.4157 640.313 66.7091 640.66C67.0024 640.993 67.3091 641.54 67.6291 642.3L69.6091 646.98H66.6291L64.6891 642.5C64.4091 641.86 64.1091 641.44 63.7891 641.24C63.4824 641.027 63.0024 640.92 62.3491 640.92ZM63.5691 635.26H62.1091V638.64H63.3691C63.9024 638.64 64.3157 638.467 64.6091 638.12C64.9157 637.773 65.0691 637.347 65.0691 636.84C65.0691 635.787 64.5691 635.26 63.5691 635.26ZM75.8998 647.1C73.9398 647.1 72.4598 646.427 71.4598 645.08C70.4598 643.72 69.9598 641.993 69.9598 639.9C69.9598 637.807 70.4598 636.1 71.4598 634.78C72.4732 633.46 73.9532 632.8 75.8998 632.8C77.8598 632.8 79.3465 633.46 80.3598 634.78C81.3732 636.1 81.8798 637.807 81.8798 639.9C81.8798 642.767 81.0065 644.833 79.2598 646.1C78.3398 646.767 77.2198 647.1 75.8998 647.1ZM75.9398 635.1C75.2332 635.1 74.6398 635.347 74.1598 635.84C73.3065 636.693 72.8798 638.047 72.8798 639.9C72.8798 641.3 73.1398 642.467 73.6598 643.4C74.1798 644.32 74.9398 644.78 75.9398 644.78C76.9532 644.78 77.7132 644.313 78.2198 643.38C78.7265 642.433 78.9798 641.287 78.9798 639.94C78.9798 638.58 78.7065 637.433 78.1598 636.5C77.6265 635.567 76.8865 635.1 75.9398 635.1ZM92.5286 645.8C91.6353 646.68 90.3419 647.12 88.6486 647.12C86.9553 647.12 85.6619 646.68 84.7686 645.8C83.8753 644.907 83.4286 643.587 83.4286 641.84V633H86.3486V642.08C86.3486 642.96 86.5419 643.64 86.9286 644.12C87.3286 644.587 87.8953 644.82 88.6286 644.82C89.3619 644.82 89.9286 644.587 90.3286 644.12C90.7419 643.64 90.9486 642.96 90.9486 642.08V633H93.8686V641.84C93.8686 643.587 93.4219 644.907 92.5286 645.8ZM107.05 647.02H104.01L99.2698 638.4V647H96.3098V633H99.2698L104.15 642.04V633H107.05V647.02ZM120.404 639.5C120.404 641.753 119.751 643.567 118.444 644.94C117.137 646.313 115.391 647 113.204 647H109.484V633H113.824C115.811 633 117.404 633.607 118.604 634.82C119.804 636.033 120.404 637.593 120.404 639.5ZM117.384 639.34C117.384 638.087 117.044 637.1 116.364 636.38C115.684 635.66 114.864 635.3 113.904 635.3H112.304V644.7H113.384C114.504 644.7 115.451 644.227 116.224 643.28C116.997 642.32 117.384 641.007 117.384 639.34ZM132.113 647H128.833L125.733 640.54L124.933 641.44V647H122.033V633H124.913V638.12L128.753 633H132.193L127.753 638.32L132.113 647ZM141.438 647H133.098V633H141.438V635.3H135.998V638.24H140.938V640.58H135.998V644.7H141.438V647ZM153.298 633L148.998 641.1V647H146.098V641.1L141.978 633H145.038L147.578 638.48L150.278 633H153.298Z" fill="black"/>
<path d="M298.26 771.5L297.78 773.84L296.54 773.5C295.66 773.3 294.893 773.2 294.24 773.2C293.333 773.2 292.88 773.633 292.88 774.5C292.88 774.833 293.033 775.14 293.34 775.42C293.66 775.687 294.06 775.913 294.54 776.1C295.02 776.273 295.533 776.493 296.08 776.76C296.627 777.027 297.14 777.313 297.62 777.62C298.1 777.927 298.493 778.347 298.8 778.88C299.12 779.413 299.28 780.027 299.28 780.72C299.28 782.093 298.833 783.173 297.94 783.96C297.06 784.733 295.813 785.12 294.2 785.12C293.373 785.12 292.547 785.013 291.72 784.8C290.907 784.573 290.233 784.313 289.7 784.02L290.56 781.88C291.787 782.44 293 782.72 294.2 782.72C294.88 782.72 295.413 782.567 295.8 782.26C296.187 781.94 296.38 781.533 296.38 781.04C296.38 780.547 296.16 780.14 295.72 779.82C295.28 779.487 294.747 779.193 294.12 778.94C293.493 778.673 292.867 778.38 292.24 778.06C291.613 777.727 291.08 777.267 290.64 776.68C290.2 776.08 289.98 775.373 289.98 774.56C289.98 773.347 290.36 772.42 291.12 771.78C291.88 771.127 292.9 770.8 294.18 770.8C295.473 770.8 296.833 771.033 298.26 771.5ZM310.136 783.8C309.242 784.68 307.949 785.12 306.256 785.12C304.562 785.12 303.269 784.68 302.376 783.8C301.482 782.907 301.036 781.587 301.036 779.84V771H303.956V780.08C303.956 780.96 304.149 781.64 304.536 782.12C304.936 782.587 305.502 782.82 306.236 782.82C306.969 782.82 307.536 782.587 307.936 782.12C308.349 781.64 308.556 780.96 308.556 780.08V771H311.476V779.84C311.476 781.587 311.029 782.907 310.136 783.8ZM313.917 785V771H318.317C319.877 771 321.044 771.313 321.817 771.94C322.59 772.553 322.977 773.433 322.977 774.58C322.977 775.353 322.757 775.993 322.317 776.5C321.89 777.007 321.304 777.313 320.557 777.42C321.504 777.58 322.237 777.96 322.757 778.56C323.277 779.16 323.537 779.907 323.537 780.8C323.537 782.067 323.064 783.087 322.117 783.86C321.17 784.62 319.857 785 318.177 785H313.917ZM316.677 782.7H318.657C319.297 782.7 319.81 782.533 320.197 782.2C320.584 781.853 320.777 781.393 320.777 780.82C320.777 780.233 320.557 779.727 320.117 779.3C319.69 778.86 319.064 778.64 318.237 778.64H316.677V782.7ZM318.417 773.3H316.677V776.36H318.217C318.737 776.36 319.197 776.2 319.597 775.88C320.01 775.56 320.217 775.147 320.217 774.64C320.217 773.813 319.617 773.367 318.417 773.3ZM325.255 785V771H329.655C331.215 771 332.382 771.313 333.155 771.94C333.928 772.553 334.315 773.433 334.315 774.58C334.315 775.353 334.095 775.993 333.655 776.5C333.228 777.007 332.642 777.313 331.895 777.42C332.842 777.58 333.575 777.96 334.095 778.56C334.615 779.16 334.875 779.907 334.875 780.8C334.875 782.067 334.402 783.087 333.455 783.86C332.508 784.62 331.195 785 329.515 785H325.255ZM328.015 782.7H329.995C330.635 782.7 331.148 782.533 331.535 782.2C331.922 781.853 332.115 781.393 332.115 780.82C332.115 780.233 331.895 779.727 331.455 779.3C331.028 778.86 330.402 778.64 329.575 778.64H328.015V782.7ZM329.755 773.3H328.015V776.36H329.555C330.075 776.36 330.535 776.2 330.935 775.88C331.348 775.56 331.555 775.147 331.555 774.64C331.555 773.813 330.955 773.367 329.755 773.3ZM346.353 771L342.053 779.1V785H339.153V779.1L335.033 771H338.093L340.633 776.48L343.333 771H346.353ZM349.429 785V773.34H346.209V771H355.489V773.34H352.309V785H349.429ZM365.247 785H356.907V771H365.247V773.3H359.807V776.24H364.747V778.58H359.807V782.7H365.247V785ZM375.187 771.5L374.707 773.84L373.467 773.5C372.587 773.3 371.82 773.2 371.167 773.2C370.26 773.2 369.807 773.633 369.807 774.5C369.807 774.833 369.96 775.14 370.267 775.42C370.587 775.687 370.987 775.913 371.467 776.1C371.947 776.273 372.46 776.493 373.007 776.76C373.553 777.027 374.067 777.313 374.547 777.62C375.027 777.927 375.42 778.347 375.727 778.88C376.047 779.413 376.207 780.027 376.207 780.72C376.207 782.093 375.76 783.173 374.867 783.96C373.987 784.733 372.74 785.12 371.127 785.12C370.3 785.12 369.473 785.013 368.647 784.8C367.833 784.573 367.16 784.313 366.627 784.02L367.487 781.88C368.713 782.44 369.927 782.72 371.127 782.72C371.807 782.72 372.34 782.567 372.727 782.26C373.113 781.94 373.307 781.533 373.307 781.04C373.307 780.547 373.087 780.14 372.647 779.82C372.207 779.487 371.673 779.193 371.047 778.94C370.42 778.673 369.793 778.38 369.167 778.06C368.54 777.727 368.007 777.267 367.567 776.68C367.127 776.08 366.907 775.373 366.907 774.56C366.907 773.347 367.287 772.42 368.047 771.78C368.807 771.127 369.827 770.8 371.107 770.8C372.4 770.8 373.76 771.033 375.187 771.5Z" fill="black"/>
<path d="M44.26 853.5L43.78 855.84L42.54 855.5C41.66 855.3 40.8933 855.2 40.24 855.2C39.3333 855.2 38.88 855.633 38.88 856.5C38.88 856.833 39.0333 857.14 39.34 857.42C39.66 857.687 40.06 857.913 40.54 858.1C41.02 858.273 41.5333 858.493 42.08 858.76C42.6267 859.027 43.14 859.313 43.62 859.62C44.1 859.927 44.4933 860.347 44.8 860.88C45.12 861.413 45.28 862.027 45.28 862.72C45.28 864.093 44.8333 865.173 43.94 865.96C43.06 866.733 41.8133 867.12 40.2 867.12C39.3733 867.12 38.5467 867.013 37.72 866.8C36.9067 866.573 36.2333 866.313 35.7 866.02L36.56 863.88C37.7867 864.44 39 864.72 40.2 864.72C40.88 864.72 41.4133 864.567 41.8 864.26C42.1867 863.94 42.38 863.533 42.38 863.04C42.38 862.547 42.16 862.14 41.72 861.82C41.28 861.487 40.7467 861.193 40.12 860.94C39.4933 860.673 38.8667 860.38 38.24 860.06C37.6133 859.727 37.08 859.267 36.64 858.68C36.2 858.08 35.98 857.373 35.98 856.56C35.98 855.347 36.36 854.42 37.12 853.78C37.88 853.127 38.9 852.8 40.18 852.8C41.4733 852.8 42.8333 853.033 44.26 853.5ZM57.4756 867H54.5756V860.88H49.9356V867H47.0356V853H49.9356V858.58H54.5756V853H57.4756V867ZM62.5169 867H59.6169V853H62.5169V867ZM73.0136 853V855.3H67.5536V858.24H72.5336V860.58H67.5536V867H64.6536V853H73.0136ZM76.6489 867V855.34H73.4289V853H82.7089V855.34H79.5289V867H76.6489ZM87.267 860.92H87.027V866.98H84.127V852.98H88.567C90.0737 852.98 91.2004 853.313 91.947 853.98C92.6937 854.633 93.067 855.573 93.067 856.8C93.067 857.547 92.807 858.233 92.287 858.86C91.767 859.473 91.1337 859.827 90.387 859.92C90.9204 860.067 91.3337 860.313 91.627 860.66C91.9204 860.993 92.227 861.54 92.547 862.3L94.527 866.98H91.547L89.607 862.5C89.327 861.86 89.027 861.44 88.707 861.24C88.4004 861.027 87.9204 860.92 87.267 860.92ZM88.487 855.26H87.027V858.64H88.287C88.8204 858.64 89.2337 858.467 89.527 858.12C89.8337 857.773 89.987 857.347 89.987 856.84C89.987 855.787 89.487 855.26 88.487 855.26ZM100.818 867.1C98.8578 867.1 97.3778 866.427 96.3778 865.08C95.3778 863.72 94.8778 861.993 94.8778 859.9C94.8778 857.807 95.3778 856.1 96.3778 854.78C97.3911 853.46 98.8711 852.8 100.818 852.8C102.778 852.8 104.264 853.46 105.278 854.78C106.291 856.1 106.798 857.807 106.798 859.9C106.798 862.767 105.924 864.833 104.178 866.1C103.258 866.767 102.138 867.1 100.818 867.1ZM100.858 855.1C100.151 855.1 99.5578 855.347 99.0778 855.84C98.2245 856.693 97.7978 858.047 97.7978 859.9C97.7978 861.3 98.0578 862.467 98.5778 863.4C99.0978 864.32 99.8578 864.78 100.858 864.78C101.871 864.78 102.631 864.313 103.138 863.38C103.644 862.433 103.898 861.287 103.898 859.94C103.898 858.58 103.624 857.433 103.078 856.5C102.544 855.567 101.804 855.1 100.858 855.1ZM122.087 853L118.767 867H115.827L114.587 860.88L112.887 867H110.047L106.787 853H109.907L111.547 863.3L113.207 856.8H115.927L117.387 863.3L119.107 853H122.087ZM130.806 853.5L130.326 855.84L129.086 855.5C128.206 855.3 127.439 855.2 126.786 855.2C125.879 855.2 125.426 855.633 125.426 856.5C125.426 856.833 125.579 857.14 125.886 857.42C126.206 857.687 126.606 857.913 127.086 858.1C127.566 858.273 128.079 858.493 128.626 858.76C129.173 859.027 129.686 859.313 130.166 859.62C130.646 859.927 131.039 860.347 131.346 860.88C131.666 861.413 131.826 862.027 131.826 862.72C131.826 864.093 131.379 865.173 130.486 865.96C129.606 866.733 128.359 867.12 126.746 867.12C125.919 867.12 125.093 867.013 124.266 866.8C123.453 866.573 122.779 866.313 122.246 866.02L123.106 863.88C124.333 864.44 125.546 864.72 126.746 864.72C127.426 864.72 127.959 864.567 128.346 864.26C128.733 863.94 128.926 863.533 128.926 863.04C128.926 862.547 128.706 862.14 128.266 861.82C127.826 861.487 127.293 861.193 126.666 860.94C126.039 860.673 125.413 860.38 124.786 860.06C124.159 859.727 123.626 859.267 123.186 858.68C122.746 858.08 122.526 857.373 122.526 856.56C122.526 855.347 122.906 854.42 123.666 853.78C124.426 853.127 125.446 852.8 126.726 852.8C128.019 852.8 129.379 853.033 130.806 853.5Z" fill="black"/>
<rect x="156" y="30" width="100" height="100" fill="#D5D90D"/>
<line x1="233.25" y1="30" x2="233.25" y2="130" stroke="black" stroke-width="2.5"/>
<line x1="256" y1="56.25" x2="156" y2="56.25" stroke="black" stroke-width="2.5"/>
<line x1="256" y1="81.25" x2="156" y2="81.25" stroke="black" stroke-width="2.5"/>
<line x1="256" y1="106.25" x2="156" y2="106.25" stroke="black" stroke-width="2.5"/>
<line x1="182.25" y1="30" x2="182.25" y2="130" stroke="black" stroke-width="2.5"/>
<line x1="207.25" y1="30" x2="207.25" y2="130" stroke="black" stroke-width="2.5"/>
<path d="M190.26 4.5L189.78 6.84L188.54 6.5C187.66 6.3 186.893 6.2 186.24 6.2C185.333 6.2 184.88 6.63333 184.88 7.5C184.88 7.83333 185.033 8.14 185.34 8.42C185.66 8.68667 186.06 8.91333 186.54 9.1C187.02 9.27333 187.533 9.49333 188.08 9.76C188.627 10.0267 189.14 10.3133 189.62 10.62C190.1 10.9267 190.493 11.3467 190.8 11.88C191.12 12.4133 191.28 13.0267 191.28 13.72C191.28 15.0933 190.833 16.1733 189.94 16.96C189.06 17.7333 187.813 18.12 186.2 18.12C185.373 18.12 184.547 18.0133 183.72 17.8C182.907 17.5733 182.233 17.3133 181.7 17.02L182.56 14.88C183.787 15.44 185 15.72 186.2 15.72C186.88 15.72 187.413 15.5667 187.8 15.26C188.187 14.94 188.38 14.5333 188.38 14.04C188.38 13.5467 188.16 13.14 187.72 12.82C187.28 12.4867 186.747 12.1933 186.12 11.94C185.493 11.6733 184.867 11.38 184.24 11.06C183.613 10.7267 183.08 10.2667 182.64 9.68C182.2 9.08 181.98 8.37333 181.98 7.56C181.98 6.34667 182.36 5.42 183.12 4.78C183.88 4.12667 184.9 3.8 186.18 3.8C187.473 3.8 188.833 4.03333 190.26 4.5ZM195.236 18V6.34H192.016V4H201.296V6.34H198.116V18H195.236ZM212.213 18H209.333L208.333 14.58H204.113L203.133 18H200.353L204.553 4H207.973L212.213 18ZM207.793 12.28L206.253 6.52L204.693 12.28H207.793ZM214.494 18V6.34H211.274V4H220.554V6.34H217.374V18H214.494ZM230.312 18H221.972V4H230.312V6.3H224.872V9.24H229.812V11.58H224.872V15.7H230.312V18Z" fill="black"/>
<line x1="2.48454" y1="261.485" x2="389.485" y2="257.515" stroke="black" stroke-width="3" stroke-linecap="round" stroke-dasharray="12 12"/>
<line x1="4.48454" y1="657.485" x2="391.485" y2="653.515" stroke="black" stroke-width="3" stroke-linecap="round" stroke-dasharray="12 12"/>
<path d="M333.403 599.596L333.404 597.846L333.403 599.596ZM216.764 598.262C216.08 598.944 216.079 600.052 216.762 600.736L227.889 611.883C228.572 612.567 229.68 612.567 230.364 611.885C231.048 611.202 231.049 610.094 230.366 609.41L220.475 599.502L230.383 589.611C231.067 588.928 231.067 587.82 230.385 587.136C229.702 586.452 228.594 586.451 227.91 587.134L216.764 598.262ZM442.581 374.39L440.831 374.431L442.581 374.39ZM443.818 426.688L445.567 426.724L445.568 426.686L445.567 426.647L443.818 426.688ZM442.47 492.816L444.22 492.852L442.47 492.816ZM215.937 270.751L332.666 269.722L332.635 266.222L215.906 267.251L215.937 270.751ZM333.404 597.846L218.001 597.75L217.999 601.25L333.401 601.346L333.404 597.846ZM440.831 374.431L442.068 426.73L445.567 426.647L444.33 374.349L440.831 374.431ZM442.068 426.653L440.721 492.781L444.22 492.852L445.567 426.724L442.068 426.653ZM333.401 601.346C393.723 601.396 442.991 553.161 444.22 492.852L440.721 492.781C439.531 551.184 391.82 597.894 333.404 597.846L333.401 601.346ZM332.666 269.722C391.276 269.206 439.445 315.836 440.831 374.431L444.33 374.349C442.899 313.841 393.158 265.689 332.635 266.222L332.666 269.722Z" fill="#857B8A"/>
<path d="M466.04 184H460.24V156H466.04V184ZM487.073 184H481.793V172.04C481.793 170.947 481.58 170.067 481.153 169.4C480.727 168.707 480.02 168.36 479.033 168.36C478.047 168.36 476.82 168.973 475.353 170.2V184H470.113V164H474.513L475.353 165.8C476.5 164.947 477.487 164.373 478.313 164.08C479.167 163.76 480.153 163.6 481.273 163.6C483.06 163.6 484.473 164.2 485.513 165.4C486.553 166.573 487.073 168.32 487.073 170.64V184ZM497.191 161H491.991V156H497.191V161ZM497.191 184H491.991V164H497.191V184ZM501.918 179.68V168.4H499.878V164H501.958V158.28H507.118V164H511.318V168.4H507.078V177.12C507.078 178.907 507.625 179.8 508.718 179.8C509.331 179.8 509.985 179.72 510.678 179.56L511.518 183.72C510.291 184.067 508.985 184.24 507.598 184.24C506.238 184.24 504.945 183.893 503.718 183.2C502.518 182.48 501.918 181.307 501.918 179.68ZM519.586 161H514.386V156H519.586V161ZM519.586 184H514.386V164H519.586V184ZM535.113 184L534.313 182C533.38 182.853 532.553 183.453 531.833 183.8C531.113 184.12 530.247 184.28 529.233 184.28C527.527 184.28 526.033 183.693 524.753 182.52C523.5 181.32 522.873 179.733 522.873 177.76C522.873 175.787 523.647 174.24 525.193 173.12C526.74 171.973 529.073 171.4 532.193 171.4H533.833C533.833 170.253 533.553 169.333 532.993 168.64C532.46 167.947 531.633 167.6 530.513 167.6C528.567 167.6 526.593 167.867 524.593 168.4L523.713 164.88C526.353 164.027 529.007 163.6 531.673 163.6C536.527 163.6 538.953 165.867 538.953 170.4V184H535.113ZM533.753 175.24H532.033C530.54 175.24 529.527 175.44 528.993 175.84C528.46 176.24 528.193 176.827 528.193 177.6C528.193 178.347 528.393 178.96 528.793 179.44C529.193 179.92 529.713 180.16 530.353 180.16C531.26 180.16 532.393 179.44 533.753 178V175.24ZM548.431 184H543.231V156H548.431V184ZM466.48 213.72V227H461.24V207H465.4L465.88 208.96C466.947 208.107 467.84 207.507 468.56 207.16C469.28 206.787 469.907 206.6 470.44 206.6C471 206.6 471.373 206.613 471.56 206.64C471.747 206.64 471.907 206.653 472.04 206.68C472.173 206.707 472.4 206.76 472.72 206.84L472.24 211.6C471.76 211.44 471.107 211.36 470.28 211.36C469.16 211.36 467.893 212.147 466.48 213.72ZM491.985 217.04C491.985 220.24 491.172 222.747 489.545 224.56C487.918 226.373 485.612 227.28 482.625 227.28C479.638 227.28 477.372 226.373 475.825 224.56C474.278 222.747 473.505 220.227 473.505 217C473.505 213.773 474.278 211.24 475.825 209.4C477.372 207.533 479.598 206.6 482.505 206.6C485.412 206.6 487.718 207.547 489.425 209.44C491.132 211.307 491.985 213.84 491.985 217.04ZM486.665 216.96C486.665 212.88 485.358 210.84 482.745 210.84C480.078 210.84 478.745 212.867 478.745 216.92C478.745 220.973 480.092 223 482.785 223C484.225 223 485.225 222.493 485.785 221.48C486.372 220.44 486.665 218.933 486.665 216.96ZM494.759 207H500.039V219.24C500.039 220.333 500.252 221.227 500.679 221.92C501.105 222.587 501.812 222.92 502.799 222.92C503.785 222.92 505.012 222.307 506.479 221.08V207H511.719V227H507.319L506.479 225.08C505.332 225.933 504.332 226.507 503.479 226.8C502.652 227.093 501.679 227.24 500.559 227.24C498.772 227.24 497.359 226.653 496.319 225.48C495.279 224.307 494.759 222.56 494.759 220.24V207ZM533.766 227H528.486V215.04C528.486 213.947 528.272 213.067 527.846 212.4C527.419 211.707 526.712 211.36 525.726 211.36C524.739 211.36 523.512 211.973 522.046 213.2V227H516.806V207H521.206L522.046 208.8C523.192 207.947 524.179 207.373 525.006 207.08C525.859 206.76 526.846 206.6 527.966 206.6C529.752 206.6 531.166 207.2 532.206 208.4C533.246 209.573 533.766 211.32 533.766 213.64V227ZM554.003 227H550.083L549.283 224.72C547.043 226.4 545.003 227.24 543.163 227.24C541.35 227.24 539.843 226.387 538.643 224.68C537.47 222.947 536.883 220.4 536.883 217.04C536.883 213.653 537.55 211.067 538.883 209.28C540.243 207.493 542.016 206.6 544.203 206.6C545.643 206.6 547.19 207.267 548.843 208.6V199H554.003V227ZM548.803 220.84V212.88C547.39 211.707 546.203 211.12 545.243 211.12C544.283 211.12 543.51 211.613 542.923 212.6C542.363 213.587 542.083 215.053 542.083 217C542.083 220.733 543.096 222.6 545.123 222.6C546.163 222.6 547.39 222.013 548.803 220.84Z" fill="black"/>
<path d="M468.84 424.56C465.933 424.56 463.68 423.8 462.08 422.28C460.507 420.76 459.72 418.6 459.72 415.8C459.72 413 460.533 410.773 462.16 409.12C463.813 407.44 466.04 406.6 468.84 406.6C475.293 406.6 478.52 410.813 478.52 419.24C478.52 427.027 476.653 431.947 472.92 434C471.427 434.827 469.613 435.24 467.48 435.24C466.36 435.24 465.267 435.133 464.2 434.92C463.133 434.707 462.347 434.493 461.84 434.28L461.04 433.92L462.16 429.92C464.027 430.64 465.92 431 467.84 431C471.467 431 473.453 428.493 473.8 423.48C472.28 424.2 470.627 424.56 468.84 424.56ZM468.64 410.8C467.333 410.8 466.28 411.24 465.48 412.12C464.707 412.973 464.32 414.053 464.32 415.36C464.32 418.693 465.88 420.36 469 420.36C470.573 420.36 472.213 419.88 473.92 418.92V418.76C473.92 416.12 473.507 414.133 472.68 412.8C471.88 411.467 470.533 410.8 468.64 410.8ZM495.946 435H490.706V415H495.106L495.786 416.8C496.932 415.947 497.919 415.373 498.746 415.08C499.599 414.76 500.586 414.6 501.706 414.6C503.732 414.6 505.212 415.52 506.146 417.36C507.639 416.267 508.839 415.533 509.746 415.16C510.679 414.787 511.692 414.6 512.786 414.6C514.439 414.6 515.746 415.213 516.706 416.44C517.666 417.64 518.146 419.413 518.146 421.76V435H512.906V423.16C512.906 420.707 512.172 419.48 510.706 419.48C509.612 419.48 508.359 420.093 506.946 421.32V435H501.746V423.16C501.746 420.707 501.026 419.48 499.586 419.48C498.519 419.48 497.306 420.053 495.946 421.2V435ZM533.812 435L533.012 433C532.079 433.853 531.252 434.453 530.532 434.8C529.812 435.12 528.945 435.28 527.932 435.28C526.225 435.28 524.732 434.693 523.452 433.52C522.199 432.32 521.572 430.733 521.572 428.76C521.572 426.787 522.345 425.24 523.892 424.12C525.439 422.973 527.772 422.4 530.892 422.4H532.532C532.532 421.253 532.252 420.333 531.692 419.64C531.159 418.947 530.332 418.6 529.212 418.6C527.265 418.6 525.292 418.867 523.292 419.4L522.412 415.88C525.052 415.027 527.705 414.6 530.372 414.6C535.225 414.6 537.652 416.867 537.652 421.4V435H533.812ZM532.452 426.24H530.732C529.239 426.24 528.225 426.44 527.692 426.84C527.159 427.24 526.892 427.827 526.892 428.6C526.892 429.347 527.092 429.96 527.492 430.44C527.892 430.92 528.412 431.16 529.052 431.16C529.959 431.16 531.092 430.44 532.452 429V426.24ZM546.969 412H541.769V407H546.969V412ZM546.969 435H541.769V415H546.969V435ZM568.856 435H563.576V423.04C563.576 421.947 563.363 421.067 562.936 420.4C562.51 419.707 561.803 419.36 560.816 419.36C559.83 419.36 558.603 419.973 557.136 421.2V435H551.896V415H556.296L557.136 416.8C558.283 415.947 559.27 415.373 560.096 415.08C560.95 414.76 561.936 414.6 563.056 414.6C564.843 414.6 566.256 415.2 567.296 416.4C568.336 417.573 568.856 419.32 568.856 421.64V435ZM466.48 464.72V478H461.24V458H465.4L465.88 459.96C466.947 459.107 467.84 458.507 468.56 458.16C469.28 457.787 469.907 457.6 470.44 457.6C471 457.6 471.373 457.613 471.56 457.64C471.747 457.64 471.907 457.653 472.04 457.68C472.173 457.707 472.4 457.76 472.72 457.84L472.24 462.6C471.76 462.44 471.107 462.36 470.28 462.36C469.16 462.36 467.893 463.147 466.48 464.72ZM491.985 468.04C491.985 471.24 491.172 473.747 489.545 475.56C487.918 477.373 485.612 478.28 482.625 478.28C479.638 478.28 477.372 477.373 475.825 475.56C474.278 473.747 473.505 471.227 473.505 468C473.505 464.773 474.278 462.24 475.825 460.4C477.372 458.533 479.598 457.6 482.505 457.6C485.412 457.6 487.718 458.547 489.425 460.44C491.132 462.307 491.985 464.84 491.985 468.04ZM486.665 467.96C486.665 463.88 485.358 461.84 482.745 461.84C480.078 461.84 478.745 463.867 478.745 467.92C478.745 471.973 480.092 474 482.785 474C484.225 474 485.225 473.493 485.785 472.48C486.372 471.44 486.665 469.933 486.665 467.96ZM494.759 458H500.039V470.24C500.039 471.333 500.252 472.227 500.679 472.92C501.105 473.587 501.812 473.92 502.799 473.92C503.785 473.92 505.012 473.307 506.479 472.08V458H511.719V478H507.319L506.479 476.08C505.332 476.933 504.332 477.507 503.479 477.8C502.652 478.093 501.679 478.24 500.559 478.24C498.772 478.24 497.359 477.653 496.319 476.48C495.279 475.307 494.759 473.56 494.759 471.24V458ZM533.766 478H528.486V466.04C528.486 464.947 528.272 464.067 527.846 463.4C527.419 462.707 526.712 462.36 525.726 462.36C524.739 462.36 523.512 462.973 522.046 464.2V478H516.806V458H521.206L522.046 459.8C523.192 458.947 524.179 458.373 525.006 458.08C525.859 457.76 526.846 457.6 527.966 457.6C529.752 457.6 531.166 458.2 532.206 459.4C533.246 460.573 533.766 462.32 533.766 464.64V478ZM554.003 478H550.083L549.283 475.72C547.043 477.4 545.003 478.24 543.163 478.24C541.35 478.24 539.843 477.387 538.643 475.68C537.47 473.947 536.883 471.4 536.883 468.04C536.883 464.653 537.55 462.067 538.883 460.28C540.243 458.493 542.016 457.6 544.203 457.6C545.643 457.6 547.19 458.267 548.843 459.6V450H554.003V478ZM548.803 471.84V463.88C547.39 462.707 546.203 462.12 545.243 462.12C544.283 462.12 543.51 462.613 542.923 463.6C542.363 464.587 542.083 466.053 542.083 468C542.083 471.733 543.096 473.6 545.123 473.6C546.163 473.6 547.39 473.013 548.803 471.84ZM558.763 472.68C560.549 473.587 562.376 474.04 564.243 474.04C566.136 474.04 567.083 473.347 567.083 471.96C567.083 470.68 566.016 469.733 563.883 469.12C562.976 468.88 562.069 468.6 561.163 468.28C560.283 467.933 559.523 467.387 558.883 466.64C558.269 465.867 557.963 464.88 557.963 463.68C557.963 461.733 558.563 460.24 559.763 459.2C560.963 458.133 562.629 457.6 564.763 457.6C566.923 457.6 568.963 457.973 570.883 458.72L570.043 462.88C568.283 462.16 566.563 461.8 564.883 461.8C563.709 461.8 563.123 462.2 563.123 463C563.123 463.827 563.909 464.453 565.483 464.88C567.136 465.307 568.603 465.92 569.883 466.72C570.549 467.12 571.109 467.72 571.563 468.52C572.016 469.32 572.243 470.28 572.243 471.4C572.243 473.507 571.536 475.173 570.123 476.4C568.709 477.627 566.763 478.24 564.283 478.24C561.803 478.24 559.589 477.667 557.643 476.52L558.763 472.68Z" fill="black"/>
<path d="M471.2 737.96L470.52 741.68C469.853 741.547 469.227 741.48 468.64 741.48C468.08 741.48 467.64 741.653 467.32 742C467 742.347 466.84 742.987 466.84 743.92V746H470.12V750.28H466.84V766H461.68V750.28H459.4V746H461.72V742.96C461.72 741.253 462.2 739.933 463.16 739C464.147 738.067 465.493 737.6 467.2 737.6C468.907 737.6 470.24 737.72 471.2 737.96ZM477.888 743H472.688V738H477.888V743ZM477.888 766H472.688V746H477.888V766ZM499.775 766H494.495V754.04C494.495 752.947 494.282 752.067 493.855 751.4C493.428 750.707 492.722 750.36 491.735 750.36C490.748 750.36 489.522 750.973 488.055 752.2V766H482.815V746H487.215L488.055 747.8C489.202 746.947 490.188 746.373 491.015 746.08C491.868 745.76 492.855 745.6 493.975 745.6C495.762 745.6 497.175 746.2 498.215 747.4C499.255 748.573 499.775 750.32 499.775 752.64V766ZM515.452 766L514.652 764C513.719 764.853 512.892 765.453 512.172 765.8C511.452 766.12 510.586 766.28 509.572 766.28C507.866 766.28 506.372 765.693 505.092 764.52C503.839 763.32 503.212 761.733 503.212 759.76C503.212 757.787 503.986 756.24 505.532 755.12C507.079 753.973 509.412 753.4 512.532 753.4H514.172C514.172 752.253 513.892 751.333 513.332 750.64C512.799 749.947 511.972 749.6 510.852 749.6C508.906 749.6 506.932 749.867 504.932 750.4L504.052 746.88C506.692 746.027 509.346 745.6 512.013 745.6C516.866 745.6 519.293 747.867 519.293 752.4V766H515.452ZM514.092 757.24H512.373C510.879 757.24 509.866 757.44 509.332 757.84C508.799 758.24 508.532 758.827 508.532 759.6C508.532 760.347 508.732 760.96 509.132 761.44C509.532 761.92 510.052 762.16 510.692 762.16C511.599 762.16 512.732 761.44 514.092 760V757.24ZM528.77 766H523.57V738H528.77V766ZM466.48 795.72V809H461.24V789H465.4L465.88 790.96C466.947 790.107 467.84 789.507 468.56 789.16C469.28 788.787 469.907 788.6 470.44 788.6C471 788.6 471.373 788.613 471.56 788.64C471.747 788.64 471.907 788.653 472.04 788.68C472.173 788.707 472.4 788.76 472.72 788.84L472.24 793.6C471.76 793.44 471.107 793.36 470.28 793.36C469.16 793.36 467.893 794.147 466.48 795.72ZM491.985 799.04C491.985 802.24 491.172 804.747 489.545 806.56C487.918 808.373 485.612 809.28 482.625 809.28C479.638 809.28 477.372 808.373 475.825 806.56C474.278 804.747 473.505 802.227 473.505 799C473.505 795.773 474.278 793.24 475.825 791.4C477.372 789.533 479.598 788.6 482.505 788.6C485.412 788.6 487.718 789.547 489.425 791.44C491.132 793.307 491.985 795.84 491.985 799.04ZM486.665 798.96C486.665 794.88 485.358 792.84 482.745 792.84C480.078 792.84 478.745 794.867 478.745 798.92C478.745 802.973 480.092 805 482.785 805C484.225 805 485.225 804.493 485.785 803.48C486.372 802.44 486.665 800.933 486.665 798.96ZM494.759 789H500.039V801.24C500.039 802.333 500.252 803.227 500.679 803.92C501.105 804.587 501.812 804.92 502.799 804.92C503.785 804.92 505.012 804.307 506.479 803.08V789H511.719V809H507.319L506.479 807.08C505.332 807.933 504.332 808.507 503.479 808.8C502.652 809.093 501.679 809.24 500.559 809.24C498.772 809.24 497.359 808.653 496.319 807.48C495.279 806.307 494.759 804.56 494.759 802.24V789ZM533.766 809H528.486V797.04C528.486 795.947 528.272 795.067 527.846 794.4C527.419 793.707 526.712 793.36 525.726 793.36C524.739 793.36 523.512 793.973 522.046 795.2V809H516.806V789H521.206L522.046 790.8C523.192 789.947 524.179 789.373 525.006 789.08C525.859 788.76 526.846 788.6 527.966 788.6C529.752 788.6 531.166 789.2 532.206 790.4C533.246 791.573 533.766 793.32 533.766 795.64V809ZM554.003 809H550.083L549.283 806.72C547.043 808.4 545.003 809.24 543.163 809.24C541.35 809.24 539.843 808.387 538.643 806.68C537.47 804.947 536.883 802.4 536.883 799.04C536.883 795.653 537.55 793.067 538.883 791.28C540.243 789.493 542.016 788.6 544.203 788.6C545.643 788.6 547.19 789.267 548.843 790.6V781H554.003V809ZM548.803 802.84V794.88C547.39 793.707 546.203 793.12 545.243 793.12C544.283 793.12 543.51 793.613 542.923 794.6C542.363 795.587 542.083 797.053 542.083 799C542.083 802.733 543.096 804.6 545.123 804.6C546.163 804.6 547.39 804.013 548.803 802.84ZM558.763 803.68C560.549 804.587 562.376 805.04 564.243 805.04C566.136 805.04 567.083 804.347 567.083 802.96C567.083 801.68 566.016 800.733 563.883 800.12C562.976 799.88 562.069 799.6 561.163 799.28C560.283 798.933 559.523 798.387 558.883 797.64C558.269 796.867 557.963 795.88 557.963 794.68C557.963 792.733 558.563 791.24 559.763 790.2C560.963 789.133 562.629 788.6 564.763 788.6C566.923 788.6 568.963 788.973 570.883 789.72L570.043 793.88C568.283 793.16 566.563 792.8 564.883 792.8C563.709 792.8 563.123 793.2 563.123 794C563.123 794.827 563.909 795.453 565.483 795.88C567.136 796.307 568.603 796.92 569.883 797.72C570.549 798.12 571.109 798.72 571.563 799.52C572.016 800.32 572.243 801.28 572.243 802.4C572.243 804.507 571.536 806.173 570.123 807.4C568.709 808.627 566.763 809.24 564.283 809.24C561.803 809.24 559.589 808.667 557.643 807.52L558.763 803.68Z" fill="black"/>
<path fill-rule="evenodd" clip-rule="evenodd" d="M98.755 143.455C103.12 144.344 107.125 146.5 110.27 149.654C112.929 152.336 114.882 155.635 115.955 159.256C117.029 162.877 117.188 166.707 116.42 170.404C115.307 175.474 112.506 180.015 108.476 183.285C104.446 186.555 99.4248 188.36 94.235 188.404C92.0453 188.408 89.867 188.09 87.77 187.459L83.77 192.144L81.875 193.019H77V200.519L74.5 203.019H67V210.519L64.5 213.019H49.5L47 210.519V198.984L47.73 197.219L72.6 172.354C71.8942 170.081 71.5566 167.709 71.6 165.329C71.6611 160.876 73.0346 156.539 75.5485 152.862C78.0624 149.185 81.605 146.331 85.7328 144.658C89.8607 142.985 94.3905 142.567 98.755 143.455ZM105.347 179.453C108.487 176.91 110.67 173.376 111.54 169.429L111.56 169.454C112.178 166.569 112.065 163.575 111.231 160.745C110.398 157.914 108.871 155.337 106.789 153.246C104.707 151.155 102.135 149.618 99.3083 148.773C96.4811 147.929 93.4878 147.804 90.6 148.409C86.7039 149.274 83.2091 151.417 80.6721 154.498C78.135 157.579 76.7016 161.42 76.6 165.409C76.546 167.684 76.9524 169.946 77.795 172.059L77.245 174.769L52 200.019V208.019H62V200.519L64.5 198.019H72V190.519L74.5 188.019H80.725L85.105 182.939L87.91 182.239C89.9319 183.029 92.0842 183.433 94.255 183.429C98.2958 183.398 102.206 181.996 105.347 179.453ZM101.157 165.797C101.707 164.975 102 164.008 102 163.02C102 161.693 101.473 160.422 100.536 159.484C99.5979 158.546 98.3261 158.02 97 158.02C96.0111 158.02 95.0444 158.313 94.2221 158.862C93.3999 159.412 92.759 160.192 92.3806 161.106C92.0022 162.02 91.9031 163.025 92.0961 163.995C92.289 164.965 92.7652 165.856 93.4645 166.555C94.1637 167.254 95.0546 167.731 96.0246 167.923C96.9945 168.116 97.9998 168.017 98.9134 167.639C99.8271 167.26 100.608 166.62 101.157 165.797Z" fill="white"/>
<path fill-rule="evenodd" clip-rule="evenodd" d="M98.755 541.455C103.12 542.344 107.125 544.5 110.27 547.654C112.929 550.336 114.882 553.635 115.955 557.256C117.029 560.877 117.188 564.707 116.42 568.404C115.307 573.474 112.506 578.015 108.476 581.285C104.446 584.555 99.4248 586.36 94.235 586.404C92.0453 586.408 89.867 586.09 87.77 585.459L83.77 590.144L81.875 591.019H77V598.519L74.5 601.019H67V608.519L64.5 611.019H49.5L47 608.519V596.984L47.73 595.219L72.6 570.354C71.8942 568.081 71.5566 565.709 71.6 563.329C71.6611 558.876 73.0346 554.539 75.5485 550.862C78.0624 547.185 81.605 544.331 85.7328 542.658C89.8607 540.985 94.3905 540.567 98.755 541.455ZM105.347 577.453C108.487 574.91 110.67 571.376 111.54 567.429L111.56 567.454C112.178 564.569 112.065 561.575 111.231 558.745C110.398 555.914 108.871 553.337 106.789 551.246C104.707 549.155 102.135 547.618 99.3083 546.773C96.4811 545.929 93.4878 545.804 90.6 546.409C86.7039 547.274 83.2091 549.417 80.6721 552.498C78.135 555.579 76.7016 559.42 76.6 563.409C76.546 565.684 76.9524 567.946 77.795 570.059L77.245 572.769L52 598.019V606.019H62V598.519L64.5 596.019H72V588.519L74.5 586.019H80.725L85.105 580.939L87.91 580.239C89.9319 581.029 92.0842 581.433 94.255 581.429C98.2958 581.398 102.206 579.996 105.347 577.453ZM101.157 563.797C101.707 562.975 102 562.008 102 561.02C102 559.693 101.473 558.422 100.536 557.484C99.5979 556.546 98.3261 556.02 97 556.02C96.0111 556.02 95.0444 556.313 94.2221 556.862C93.3999 557.412 92.759 558.192 92.3806 559.106C92.0022 560.02 91.9031 561.025 92.0961 561.995C92.289 562.965 92.7652 563.856 93.4645 564.555C94.1637 565.254 95.0546 565.731 96.0246 565.923C96.9945 566.116 97.9998 566.017 98.9134 565.639C99.8271 565.26 100.608 564.62 101.157 563.797Z" fill="white"/>
<path fill-rule="evenodd" clip-rule="evenodd" d="M350.755 860.455C355.12 861.344 359.125 863.5 362.27 866.654C364.929 869.336 366.882 872.635 367.955 876.256C369.029 879.877 369.188 883.707 368.42 887.404C367.307 892.474 364.506 897.015 360.476 900.285C356.446 903.555 351.425 905.36 346.235 905.404C344.045 905.408 341.867 905.09 339.77 904.459L335.77 909.144L333.875 910.019H329V917.519L326.5 920.019H319V927.519L316.5 930.019H301.5L299 927.519V915.984L299.73 914.219L324.6 889.354C323.894 887.081 323.557 884.709 323.6 882.329C323.661 877.876 325.035 873.539 327.548 869.862C330.062 866.185 333.605 863.331 337.733 861.658C341.861 859.985 346.39 859.567 350.755 860.455ZM357.347 896.453C360.487 893.91 362.67 890.376 363.54 886.429L363.56 886.454C364.178 883.569 364.065 880.575 363.231 877.745C362.398 874.914 360.871 872.337 358.789 870.246C356.707 868.155 354.135 866.618 351.308 865.773C348.481 864.929 345.488 864.804 342.6 865.409C338.704 866.274 335.209 868.417 332.672 871.498C330.135 874.579 328.702 878.42 328.6 882.409C328.546 884.684 328.952 886.946 329.795 889.059L329.245 891.769L304 917.019V925.019H314V917.519L316.5 915.019H324V907.519L326.5 905.019H332.725L337.105 899.939L339.91 899.239C341.932 900.029 344.084 900.433 346.255 900.429C350.296 900.398 354.206 898.996 357.347 896.453ZM353.157 882.797C353.707 881.975 354 881.008 354 880.02C354 878.693 353.473 877.422 352.536 876.484C351.598 875.546 350.326 875.02 349 875.02C348.011 875.02 347.044 875.313 346.222 875.862C345.4 876.412 344.759 877.192 344.381 878.106C344.002 879.02 343.903 880.025 344.096 880.995C344.289 881.965 344.765 882.856 345.464 883.555C346.164 884.254 347.055 884.731 348.025 884.923C348.994 885.116 350 885.017 350.913 884.639C351.827 884.26 352.608 883.62 353.157 882.797Z" fill="white"/>
<path d="M92.1294 388.891L92.1294 386.641H92.1294L92.1294 388.891ZM58.5384 387.3C57.6597 388.179 57.6597 389.603 58.5384 390.482L72.8573 404.801C73.736 405.679 75.1606 405.679 76.0393 404.801C76.9179 403.922 76.9179 402.497 76.0393 401.619L63.3113 388.891L76.0393 376.163C76.9179 375.284 76.9179 373.86 76.0393 372.981C75.1606 372.102 73.736 372.102 72.8573 372.981L58.5384 387.3ZM92.1294 436.391L92.1294 434.141H92.1294L92.1294 436.391ZM102.129 426.391L99.8794 426.391L102.129 426.391ZM102.129 398.891L99.8794 398.891L102.129 398.891ZM92.1294 386.641L60.1294 386.641L60.1294 391.141L92.1294 391.141L92.1294 386.641ZM64.6294 438.641L92.1294 438.641L92.1294 434.141L64.6294 434.141L64.6294 438.641ZM104.379 426.391L104.379 398.891L99.8794 398.891L99.8794 426.391L104.379 426.391ZM92.1294 438.641C98.8949 438.641 104.379 433.156 104.379 426.391L99.8794 426.391C99.8794 430.671 96.4096 434.141 92.1294 434.141L92.1294 438.641ZM92.1294 391.141C96.4096 391.141 99.8794 394.611 99.8794 398.891L104.379 398.891C104.379 392.125 98.8949 386.641 92.1294 386.641L92.1294 391.141Z" fill="white"/>
<path d="M93.1294 777.891L93.1294 775.641H93.1294L93.1294 777.891ZM59.5384 776.3C58.6597 777.179 58.6597 778.603 59.5384 779.482L73.8573 793.801C74.736 794.68 76.1606 794.68 77.0393 793.801C77.9179 792.922 77.9179 791.498 77.0393 790.619L64.3113 777.891L77.0393 765.163C77.9179 764.284 77.9179 762.86 77.0393 761.981C76.1606 761.102 74.736 761.102 73.8573 761.981L59.5384 776.3ZM93.1294 825.391L93.1294 823.141H93.1294L93.1294 825.391ZM103.129 815.391L100.879 815.391L103.129 815.391ZM103.129 787.891L100.879 787.891L103.129 787.891ZM93.1294 775.641L61.1294 775.641L61.1294 780.141L93.1294 780.141L93.1294 775.641ZM65.6294 827.641L93.1294 827.641L93.1294 823.141L65.6294 823.141L65.6294 827.641ZM105.379 815.391L105.379 787.891L100.879 787.891L100.879 815.391L105.379 815.391ZM93.1294 827.641C99.8949 827.641 105.379 822.156 105.379 815.391L100.879 815.391C100.879 819.671 97.4096 823.141 93.1294 823.141L93.1294 827.641ZM93.1294 780.141C97.4096 780.141 100.879 783.611 100.879 787.891L105.379 787.891C105.379 781.125 99.8949 775.641 93.1294 775.641L93.1294 780.141Z" fill="white"/>
<path d="M357.444 304.734L359.201 304.734L359.201 304.734L357.444 304.734ZM356.202 325.738C356.888 326.424 358 326.424 358.686 325.738L369.865 314.559C370.551 313.873 370.551 312.76 369.865 312.074C369.179 311.388 368.067 311.388 367.381 312.074L357.444 322.011L347.507 312.074C346.821 311.388 345.709 311.388 345.023 312.074C344.337 312.76 344.337 313.873 345.023 314.559L356.202 325.738ZM303.098 304.734L301.341 304.734L303.098 304.734ZM312.979 294.852L312.979 296.609L312.979 294.852ZM347.563 294.852L347.563 296.609H347.563L347.563 294.852ZM355.687 304.734L355.687 324.496L359.201 324.496L359.201 304.734L355.687 304.734ZM304.854 310.772L304.854 304.734L301.341 304.734L301.341 310.772L304.854 310.772ZM312.979 296.609L347.563 296.609L347.563 293.096L312.979 293.096L312.979 296.609ZM304.854 304.734C304.854 300.247 308.492 296.609 312.979 296.609L312.979 293.096C306.551 293.096 301.341 298.306 301.341 304.734L304.854 304.734ZM359.201 304.734C359.201 298.306 353.99 293.096 347.563 293.096L347.563 296.609C352.05 296.609 355.687 300.247 355.687 304.734L359.201 304.734Z" fill="white"/>
<path d="M303.556 341.583L301.799 341.583L301.799 341.583L303.556 341.583ZM304.798 320.579C304.112 319.893 303 319.893 302.314 320.579L291.135 331.758C290.449 332.444 290.449 333.556 291.135 334.242C291.821 334.928 292.933 334.928 293.619 334.242L303.556 324.305L313.493 334.242C314.179 334.928 315.291 334.928 315.977 334.242C316.663 333.556 316.663 332.444 315.977 331.758L304.798 320.579ZM357.902 341.583L359.659 341.583L357.902 341.583ZM348.021 351.464L348.021 349.707L348.021 351.464ZM313.437 351.464L313.437 349.707H313.437L313.437 351.464ZM305.312 341.583L305.313 321.821L301.799 321.821L301.799 341.583L305.312 341.583ZM356.146 335.544L356.146 341.583L359.659 341.583L359.659 335.544L356.146 335.544ZM348.021 349.707L313.437 349.707L313.437 353.221L348.021 353.221L348.021 349.707ZM356.146 341.583C356.146 346.07 352.508 349.707 348.021 349.707L348.021 353.221C354.448 353.221 359.659 348.01 359.659 341.583L356.146 341.583ZM301.799 341.583C301.799 348.01 307.01 353.221 313.437 353.221L313.437 349.707C308.95 349.707 305.312 346.07 305.312 341.583L301.799 341.583Z" fill="white"/>
<path d="M359.444 697.734L361.201 697.734L361.201 697.734L359.444 697.734ZM358.202 718.738C358.888 719.424 360 719.424 360.686 718.738L371.865 707.559C372.551 706.873 372.551 705.76 371.865 705.074C371.179 704.388 370.067 704.388 369.381 705.074L359.444 715.011L349.507 705.074C348.821 704.388 347.709 704.388 347.023 705.074C346.337 705.76 346.337 706.873 347.023 707.559L358.202 718.738ZM305.098 697.734L303.341 697.734L305.098 697.734ZM314.979 687.852L314.979 689.609L314.979 687.852ZM349.563 687.852L349.563 689.609H349.563L349.563 687.852ZM357.687 697.734L357.687 717.496L361.201 717.496L361.201 697.734L357.687 697.734ZM306.854 703.772L306.854 697.734L303.341 697.734L303.341 703.772L306.854 703.772ZM314.979 689.609L349.563 689.609L349.563 686.096L314.979 686.096L314.979 689.609ZM306.854 697.734C306.854 693.247 310.492 689.609 314.979 689.609L314.979 686.096C308.551 686.096 303.341 691.306 303.341 697.734L306.854 697.734ZM361.201 697.734C361.201 691.306 355.99 686.096 349.563 686.096L349.563 689.609C354.05 689.609 357.687 693.247 357.687 697.734L361.201 697.734Z" fill="white"/>
<path d="M305.556 734.583L303.799 734.583L303.799 734.583L305.556 734.583ZM306.798 713.579C306.112 712.893 305 712.893 304.314 713.579L293.135 724.758C292.449 725.444 292.449 726.556 293.135 727.242C293.821 727.928 294.933 727.928 295.619 727.242L305.556 717.305L315.493 727.242C316.179 727.928 317.291 727.928 317.977 727.242C318.663 726.556 318.663 725.444 317.977 724.758L306.798 713.579ZM359.902 734.583L361.659 734.583L359.902 734.583ZM350.021 744.464L350.021 742.707L350.021 744.464ZM315.437 744.464L315.437 742.707H315.437L315.437 744.464ZM307.312 734.583L307.313 714.821L303.799 714.821L303.799 734.583L307.312 734.583ZM358.146 728.544L358.146 734.583L361.659 734.583L361.659 728.544L358.146 728.544ZM350.021 742.707L315.437 742.707L315.437 746.221L350.021 746.221L350.021 742.707ZM358.146 734.583C358.146 739.07 354.508 742.707 350.021 742.707L350.021 746.221C356.448 746.221 361.659 741.01 361.659 734.583L358.146 734.583ZM303.799 734.583C303.799 741.01 309.01 746.221 315.437 746.221L315.437 742.707C310.95 742.707 307.312 739.07 307.312 734.583L303.799 734.583Z" fill="white"/>
<path d="M319.316 483.537C320.097 482.755 320.097 481.489 319.316 480.708L306.588 467.98C305.807 467.199 304.541 467.199 303.76 467.98C302.979 468.761 302.979 470.028 303.76 470.809L315.073 482.122L303.76 493.436C302.979 494.217 302.979 495.483 303.76 496.264C304.541 497.046 305.807 497.046 306.588 496.264L319.316 483.537ZM303.867 482.122L303.867 480.122L303.867 480.122L303.867 482.122ZM296.062 489.928L294.062 489.928L294.062 489.928L296.062 489.928ZM296.061 508.883L298.061 508.883L298.061 508.883L296.061 508.883ZM303.867 516.689L303.867 514.689L303.867 514.689L303.867 516.689ZM322.822 516.689L322.822 518.689L322.822 518.689L322.822 516.689ZM330.627 508.883L328.627 508.883L328.627 508.883L330.627 508.883ZM330.627 489.928L328.627 489.928L328.627 489.928L330.627 489.928ZM338.433 482.122L338.433 480.122L338.433 480.122L338.433 482.122ZM357.388 482.122L357.388 484.122L357.388 484.122L357.388 482.122ZM365.194 489.928L367.194 489.928V489.928L365.194 489.928ZM365.194 508.883L367.194 508.883L365.194 508.883ZM357.388 516.689L357.388 518.689L357.388 518.689L357.388 516.689ZM341.939 515.274C341.158 516.056 341.158 517.322 341.939 518.103L354.667 530.831C355.448 531.612 356.714 531.612 357.495 530.831C358.276 530.05 358.276 528.783 357.495 528.002L346.181 516.689L357.495 505.375C358.276 504.594 358.276 503.328 357.495 502.547C356.714 501.765 355.448 501.765 354.667 502.547L341.939 515.274ZM317.902 480.122L303.867 480.122L303.867 484.122L317.902 484.122L317.902 480.122ZM294.062 489.928L294.061 508.883L298.061 508.883L298.062 489.928L294.062 489.928ZM303.867 518.689L322.822 518.689L322.822 514.689L303.867 514.689L303.867 518.689ZM332.627 508.883L332.627 489.928L328.627 489.928L328.627 508.883L332.627 508.883ZM338.433 484.122L357.388 484.122L357.388 480.122L338.433 480.122L338.433 484.122ZM363.194 489.928L363.194 508.883L367.194 508.883L367.194 489.928L363.194 489.928ZM357.388 514.689L343.353 514.689L343.353 518.689L357.388 518.689L357.388 514.689ZM363.194 508.883C363.194 512.09 360.594 514.689 357.388 514.689L357.388 518.689C362.804 518.689 367.194 514.299 367.194 508.883L363.194 508.883ZM357.388 484.122C360.594 484.122 363.194 486.722 363.194 489.928L367.194 489.928C367.194 484.512 362.804 480.122 357.388 480.122L357.388 484.122ZM332.627 489.928C332.627 486.721 335.227 484.122 338.433 484.122L338.433 480.122C333.017 480.122 328.627 484.512 328.627 489.928L332.627 489.928ZM322.822 518.689C328.237 518.689 332.627 514.299 332.627 508.883L328.627 508.883C328.627 512.09 326.028 514.689 322.822 514.689L322.822 518.689ZM294.061 508.883C294.061 514.299 298.451 518.689 303.867 518.689L303.867 514.689C300.66 514.689 298.061 512.089 298.061 508.883L294.061 508.883ZM303.867 480.122C298.452 480.122 294.062 484.512 294.062 489.928L298.062 489.928C298.062 486.721 300.661 484.122 303.867 484.122L303.867 480.122Z" fill="white"/>
</svg>
